<svg xmlns="http://www.w3.org/2000/svg" width="540" height="195" viewBox="0 0 540 195" font-family="-apple-system, BlinkMacSystemFont, 'SF Pro Display', 'SF Pro Text', Helvetica, Arial, sans-serif">
  <rect width="540" height="195" rx="8" fill="#f5f5f7"/>
  <text x="28" y="44" font-size="11" font-weight="600" fill="#6e6e73" letter-spacing="1.5">WHEN I CODE</text>
  <text x="512" y="44" font-size="10" font-weight="500" fill="#6e6e73" text-anchor="end" letter-spacing="0.5">LAST 14 DAYS · SGT</text>
  <text x="28" y="73" font-size="10" font-weight="500" fill="#6e6e73">M</text>
  <rect x="52" y="62" width="17" height="14" rx="2" fill="#e8edf4"/>
  <rect x="70" y="62" width="17" height="14" rx="2" fill="#e8edf4"/>
  <rect x="88" y="62" width="17" height="14" rx="2" fill="#e8edf4"/>
  <rect x="106" y="62" width="17" height="14" rx="2" fill="#e8edf4"/>
  <rect x="124" y="62" width="17" height="14" rx="2" fill="#e8edf4"/>
  <rect x="142" y="62" width="17" height="14" rx="2" fill="#e8edf4"/>
  <rect x="160" y="62" width="17" height="14" rx="2" fill="#e8edf4"/>
  <rect x="178" y="62" width="17" height="14" rx="2" fill="#e8edf4"/>
  <rect x="196" y="62" width="17" height="14" rx="2" fill="#e8edf4"/>
  <rect x="214" y="62" width="17" height="14" rx="2" fill="#e8edf4"/>
  <rect x="232" y="62" width="17" height="14" rx="2" fill="#0071e3" fill-opacity="0.58"/>
  <rect x="250" y="62" width="17" height="14" rx="2" fill="#0071e3" fill-opacity="0.31"/>
  <rect x="268" y="62" width="17" height="14" rx="2" fill="#e8edf4"/>
  <rect x="286" y="62" width="17" height="14" rx="2" fill="#0071e3" fill-opacity="0.93"/>
  <rect x="304" y="62" width="17" height="14" rx="2" fill="#0071e3" fill-opacity="0.64"/>
  <rect x="322" y="62" width="17" height="14" rx="2" fill="#0071e3" fill-opacity="0.31"/>
  <rect x="340" y="62" width="17" height="14" rx="2" fill="#0071e3" fill-opacity="0.67"/>
  <rect x="358" y="62" width="17" height="14" rx="2" fill="#0071e3" fill-opacity="0.28"/>
  <rect x="376" y="62" width="17" height="14" rx="2" fill="#e8edf4"/>
  <rect x="394" y="62" width="17" height="14" rx="2" fill="#e8edf4"/>
  <rect x="412" y="62" width="17" height="14" rx="2" fill="#0071e3" fill-opacity="1.00"/>
  <rect x="430" y="62" width="17" height="14" rx="2" fill="#0071e3" fill-opacity="0.26"/>
  <rect x="448" y="62" width="17" height="14" rx="2" fill="#e8edf4"/>
  <rect x="466" y="62" width="17" height="14" rx="2" fill="#0071e3" fill-opacity="0.39"/>
  <text x="28" y="88" font-size="10" font-weight="500" fill="#6e6e73">T</text>
  <rect x="52" y="77" width="17" height="14" rx="2" fill="#0071e3" fill-opacity="0.39"/>
  <rect x="70" y="77" width="17" height="14" rx="2" fill="#e8edf4"/>
  <rect x="88" y="77" width="17" height="14" rx="2" fill="#e8edf4"/>
  <rect x="106" y="77" width="17" height="14" rx="2" fill="#e8edf4"/>
  <rect x="124" y="77" width="17" height="14" rx="2" fill="#e8edf4"/>
  <rect x="142" y="77" width="17" height="14" rx="2" fill="#e8edf4"/>
  <rect x="160" y="77" width="17" height="14" rx="2" fill="#e8edf4"/>
  <rect x="178" y="77" width="17" height="14" rx="2" fill="#e8edf4"/>
  <rect x="196" y="77" width="17" height="14" rx="2" fill="#e8edf4"/>
  <rect x="214" y="77" width="17" height="14" rx="2" fill="#e8edf4"/>
  <rect x="232" y="77" width="17" height="14" rx="2" fill="#0071e3" fill-opacity="0.50"/>
  <rect x="250" y="77" width="17" height="14" rx="2" fill="#0071e3" fill-opacity="0.22"/>
  <rect x="268" y="77" width="17" height="14" rx="2" fill="#e8edf4"/>
  <rect x="286" y="77" width="17" height="14" rx="2" fill="#0071e3" fill-opacity="0.51"/>
  <rect x="304" y="77" width="17" height="14" rx="2" fill="#0071e3" fill-opacity="0.41"/>
  <rect x="322" y="77" width="17" height="14" rx="2" fill="#0071e3" fill-opacity="0.50"/>
  <rect x="340" y="77" width="17" height="14" rx="2" fill="#0071e3" fill-opacity="0.30"/>
  <rect x="358" y="77" width="17" height="14" rx="2" fill="#e8edf4"/>
  <rect x="376" y="77" width="17" height="14" rx="2" fill="#e8edf4"/>
  <rect x="394" y="77" width="17" height="14" rx="2" fill="#e8edf4"/>
  <rect x="412" y="77" width="17" height="14" rx="2" fill="#e8edf4"/>
  <rect x="430" y="77" width="17" height="14" rx="2" fill="#e8edf4"/>
  <rect x="448" y="77" width="17" height="14" rx="2" fill="#0071e3" fill-opacity="0.24"/>
  <rect x="466" y="77" width="17" height="14" rx="2" fill="#e8edf4"/>
  <text x="28" y="103" font-size="10" font-weight="500" fill="#6e6e73">W</text>
  <rect x="52" y="92" width="17" height="14" rx="2" fill="#e8edf4"/>
  <rect x="70" y="92" width="17" height="14" rx="2" fill="#e8edf4"/>
  <rect x="88" y="92" width="17" height="14" rx="2" fill="#e8edf4"/>
  <rect x="106" y="92" width="17" height="14" rx="2" fill="#e8edf4"/>
  <rect x="124" y="92" width="17" height="14" rx="2" fill="#e8edf4"/>
  <rect x="142" y="92" width="17" height="14" rx="2" fill="#e8edf4"/>
  <rect x="160" y="92" width="17" height="14" rx="2" fill="#e8edf4"/>
  <rect x="178" y="92" width="17" height="14" rx="2" fill="#e8edf4"/>
  <rect x="196" y="92" width="17" height="14" rx="2" fill="#e8edf4"/>
  <rect x="214" y="92" width="17" height="14" rx="2" fill="#e8edf4"/>
  <rect x="232" y="92" width="17" height="14" rx="2" fill="#0071e3" fill-opacity="0.57"/>
  <rect x="250" y="92" width="17" height="14" rx="2" fill="#e8edf4"/>
  <rect x="268" y="92" width="17" height="14" rx="2" fill="#0071e3" fill-opacity="0.23"/>
  <rect x="286" y="92" width="17" height="14" rx="2" fill="#0071e3" fill-opacity="0.48"/>
  <rect x="304" y="92" width="17" height="14" rx="2" fill="#0071e3" fill-opacity="0.30"/>
  <rect x="322" y="92" width="17" height="14" rx="2" fill="#0071e3" fill-opacity="0.42"/>
  <rect x="340" y="92" width="17" height="14" rx="2" fill="#0071e3" fill-opacity="0.39"/>
  <rect x="358" y="92" width="17" height="14" rx="2" fill="#0071e3" fill-opacity="0.34"/>
  <rect x="376" y="92" width="17" height="14" rx="2" fill="#0071e3" fill-opacity="0.26"/>
  <rect x="394" y="92" width="17" height="14" rx="2" fill="#0071e3" fill-opacity="0.37"/>
  <rect x="412" y="92" width="17" height="14" rx="2" fill="#e8edf4"/>
  <rect x="430" y="92" width="17" height="14" rx="2" fill="#0071e3" fill-opacity="0.31"/>
  <rect x="448" y="92" width="17" height="14" rx="2" fill="#0071e3" fill-opacity="0.79"/>
  <rect x="466" y="92" width="17" height="14" rx="2" fill="#0071e3" fill-opacity="0.32"/>
  <text x="28" y="118" font-size="10" font-weight="500" fill="#6e6e73">T</text>
  <rect x="52" y="107" width="17" height="14" rx="2" fill="#0071e3" fill-opacity="0.35"/>
  <rect x="70" y="107" width="17" height="14" rx="2" fill="#e8edf4"/>
  <rect x="88" y="107" width="17" height="14" rx="2" fill="#e8edf4"/>
  <rect x="106" y="107" width="17" height="14" rx="2" fill="#e8edf4"/>
  <rect x="124" y="107" width="17" height="14" rx="2" fill="#e8edf4"/>
  <rect x="142" y="107" width="17" height="14" rx="2" fill="#e8edf4"/>
  <rect x="160" y="107" width="17" height="14" rx="2" fill="#e8edf4"/>
  <rect x="178" y="107" width="17" height="14" rx="2" fill="#e8edf4"/>
  <rect x="196" y="107" width="17" height="14" rx="2" fill="#e8edf4"/>
  <rect x="214" y="107" width="17" height="14" rx="2" fill="#e8edf4"/>
  <rect x="232" y="107" width="17" height="14" rx="2" fill="#0071e3" fill-opacity="0.63"/>
  <rect x="250" y="107" width="17" height="14" rx="2" fill="#0071e3" fill-opacity="0.58"/>
  <rect x="268" y="107" width="17" height="14" rx="2" fill="#e8edf4"/>
  <rect x="286" y="107" width="17" height="14" rx="2" fill="#0071e3" fill-opacity="0.79"/>
  <rect x="304" y="107" width="17" height="14" rx="2" fill="#0071e3" fill-opacity="0.78"/>
  <rect x="322" y="107" width="17" height="14" rx="2" fill="#0071e3" fill-opacity="0.47"/>
  <rect x="340" y="107" width="17" height="14" rx="2" fill="#0071e3" fill-opacity="0.72"/>
  <rect x="358" y="107" width="17" height="14" rx="2" fill="#0071e3" fill-opacity="0.39"/>
  <rect x="376" y="107" width="17" height="14" rx="2" fill="#0071e3" fill-opacity="0.68"/>
  <rect x="394" y="107" width="17" height="14" rx="2" fill="#0071e3" fill-opacity="0.36"/>
  <rect x="412" y="107" width="17" height="14" rx="2" fill="#0071e3" fill-opacity="0.51"/>
  <rect x="430" y="107" width="17" height="14" rx="2" fill="#0071e3" fill-opacity="0.37"/>
  <rect x="448" y="107" width="17" height="14" rx="2" fill="#0071e3" fill-opacity="0.36"/>
  <rect x="466" y="107" width="17" height="14" rx="2" fill="#0071e3" fill-opacity="0.46"/>
  <text x="28" y="133" font-size="10" font-weight="500" fill="#6e6e73">F</text>
  <rect x="52" y="122" width="17" height="14" rx="2" fill="#0071e3" fill-opacity="0.47"/>
  <rect x="70" y="122" width="17" height="14" rx="2" fill="#e8edf4"/>
  <rect x="88" y="122" width="17" height="14" rx="2" fill="#e8edf4"/>
  <rect x="106" y="122" width="17" height="14" rx="2" fill="#e8edf4"/>
  <rect x="124" y="122" width="17" height="14" rx="2" fill="#e8edf4"/>
  <rect x="142" y="122" width="17" height="14" rx="2" fill="#e8edf4"/>
  <rect x="160" y="122" width="17" height="14" rx="2" fill="#e8edf4"/>
  <rect x="178" y="122" width="17" height="14" rx="2" fill="#e8edf4"/>
  <rect x="196" y="122" width="17" height="14" rx="2" fill="#e8edf4"/>
  <rect x="214" y="122" width="17" height="14" rx="2" fill="#0071e3" fill-opacity="0.29"/>
  <rect x="232" y="122" width="17" height="14" rx="2" fill="#0071e3" fill-opacity="0.74"/>
  <rect x="250" y="122" width="17" height="14" rx="2" fill="#e8edf4"/>
  <rect x="268" y="122" width="17" height="14" rx="2" fill="#0071e3" fill-opacity="0.62"/>
  <rect x="286" y="122" width="17" height="14" rx="2" fill="#0071e3" fill-opacity="0.36"/>
  <rect x="304" y="122" width="17" height="14" rx="2" fill="#0071e3" fill-opacity="0.67"/>
  <rect x="322" y="122" width="17" height="14" rx="2" fill="#0071e3" fill-opacity="0.32"/>
  <rect x="340" y="122" width="17" height="14" rx="2" fill="#0071e3" fill-opacity="0.47"/>
  <rect x="358" y="122" width="17" height="14" rx="2" fill="#0071e3" fill-opacity="0.37"/>
  <rect x="376" y="122" width="17" height="14" rx="2" fill="#0071e3" fill-opacity="0.21"/>
  <rect x="394" y="122" width="17" height="14" rx="2" fill="#e8edf4"/>
  <rect x="412" y="122" width="17" height="14" rx="2" fill="#e8edf4"/>
  <rect x="430" y="122" width="17" height="14" rx="2" fill="#e8edf4"/>
  <rect x="448" y="122" width="17" height="14" rx="2" fill="#0071e3" fill-opacity="0.20"/>
  <rect x="466" y="122" width="17" height="14" rx="2" fill="#0071e3" fill-opacity="0.31"/>
  <text x="28" y="148" font-size="10" font-weight="500" fill="#6e6e73">S</text>
  <rect x="52" y="137" width="17" height="14" rx="2" fill="#0071e3" fill-opacity="0.37"/>
  <rect x="70" y="137" width="17" height="14" rx="2" fill="#e8edf4"/>
  <rect x="88" y="137" width="17" height="14" rx="2" fill="#0071e3" fill-opacity="0.31"/>
  <rect x="106" y="137" width="17" height="14" rx="2" fill="#e8edf4"/>
  <rect x="124" y="137" width="17" height="14" rx="2" fill="#e8edf4"/>
  <rect x="142" y="137" width="17" height="14" rx="2" fill="#e8edf4"/>
  <rect x="160" y="137" width="17" height="14" rx="2" fill="#e8edf4"/>
  <rect x="178" y="137" width="17" height="14" rx="2" fill="#e8edf4"/>
  <rect x="196" y="137" width="17" height="14" rx="2" fill="#e8edf4"/>
  <rect x="214" y="137" width="17" height="14" rx="2" fill="#e8edf4"/>
  <rect x="232" y="137" width="17" height="14" rx="2" fill="#e8edf4"/>
  <rect x="250" y="137" width="17" height="14" rx="2" fill="#e8edf4"/>
  <rect x="268" y="137" width="17" height="14" rx="2" fill="#e8edf4"/>
  <rect x="286" y="137" width="17" height="14" rx="2" fill="#e8edf4"/>
  <rect x="304" y="137" width="17" height="14" rx="2" fill="#e8edf4"/>
  <rect x="322" y="137" width="17" height="14" rx="2" fill="#e8edf4"/>
  <rect x="340" y="137" width="17" height="14" rx="2" fill="#e8edf4"/>
  <rect x="358" y="137" width="17" height="14" rx="2" fill="#0071e3" fill-opacity="0.22"/>
  <rect x="376" y="137" width="17" height="14" rx="2" fill="#0071e3" fill-opacity="0.23"/>
  <rect x="394" y="137" width="17" height="14" rx="2" fill="#e8edf4"/>
  <rect x="412" y="137" width="17" height="14" rx="2" fill="#0071e3" fill-opacity="0.33"/>
  <rect x="430" y="137" width="17" height="14" rx="2" fill="#0071e3" fill-opacity="0.53"/>
  <rect x="448" y="137" width="17" height="14" rx="2" fill="#0071e3" fill-opacity="0.24"/>
  <rect x="466" y="137" width="17" height="14" rx="2" fill="#0071e3" fill-opacity="0.47"/>
  <text x="28" y="163" font-size="10" font-weight="500" fill="#6e6e73">S</text>
  <rect x="52" y="152" width="17" height="14" rx="2" fill="#0071e3" fill-opacity="0.93"/>
  <rect x="70" y="152" width="17" height="14" rx="2" fill="#0071e3" fill-opacity="0.24"/>
  <rect x="88" y="152" width="17" height="14" rx="2" fill="#e8edf4"/>
  <rect x="106" y="152" width="17" height="14" rx="2" fill="#e8edf4"/>
  <rect x="124" y="152" width="17" height="14" rx="2" fill="#e8edf4"/>
  <rect x="142" y="152" width="17" height="14" rx="2" fill="#e8edf4"/>
  <rect x="160" y="152" width="17" height="14" rx="2" fill="#e8edf4"/>
  <rect x="178" y="152" width="17" height="14" rx="2" fill="#e8edf4"/>
  <rect x="196" y="152" width="17" height="14" rx="2" fill="#e8edf4"/>
  <rect x="214" y="152" width="17" height="14" rx="2" fill="#e8edf4"/>
  <rect x="232" y="152" width="17" height="14" rx="2" fill="#e8edf4"/>
  <rect x="250" y="152" width="17" height="14" rx="2" fill="#e8edf4"/>
  <rect x="268" y="152" width="17" height="14" rx="2" fill="#e8edf4"/>
  <rect x="286" y="152" width="17" height="14" rx="2" fill="#e8edf4"/>
  <rect x="304" y="152" width="17" height="14" rx="2" fill="#e8edf4"/>
  <rect x="322" y="152" width="17" height="14" rx="2" fill="#e8edf4"/>
  <rect x="340" y="152" width="17" height="14" rx="2" fill="#e8edf4"/>
  <rect x="358" y="152" width="17" height="14" rx="2" fill="#0071e3" fill-opacity="0.30"/>
  <rect x="376" y="152" width="17" height="14" rx="2" fill="#0071e3" fill-opacity="0.21"/>
  <rect x="394" y="152" width="17" height="14" rx="2" fill="#e8edf4"/>
  <rect x="412" y="152" width="17" height="14" rx="2" fill="#0071e3" fill-opacity="0.21"/>
  <rect x="430" y="152" width="17" height="14" rx="2" fill="#e8edf4"/>
  <rect x="448" y="152" width="17" height="14" rx="2" fill="#e8edf4"/>
  <rect x="466" y="152" width="17" height="14" rx="2" fill="#0071e3" fill-opacity="0.19"/>
  <text x="60.5" y="181" font-size="9" fill="#6e6e73" text-anchor="middle">00</text>
  <text x="168.5" y="181" font-size="9" fill="#6e6e73" text-anchor="middle">06</text>
  <text x="276.5" y="181" font-size="9" fill="#6e6e73" text-anchor="middle">12</text>
  <text x="384.5" y="181" font-size="9" fill="#6e6e73" text-anchor="middle">18</text>
  <text x="474.5" y="181" font-size="9" fill="#6e6e73" text-anchor="middle">23</text>
</svg>
