<svg xmlns="http://www.w3.org/2000/svg" width="540" height="195" viewBox="0 0 540 195" font-family="-apple-system, BlinkMacSystemFont, 'SF Pro Display', 'SF Pro Text', Helvetica, Arial, sans-serif">
  <rect width="540" height="195" rx="8" fill="#f5f5f7"/>
  <g opacity="1">
    <text x="28" y="44" font-size="11" font-weight="600" fill="#6e6e73" letter-spacing="1.5">LANGUAGES</text>
  <g>
    <rect x="28.00" y="72" width="194.62" height="14" fill="#0071e3"/>
    <rect x="222.62" y="72" width="114.37" height="14" fill="#86868b"/>
    <rect x="336.99" y="72" width="30.83" height="14" fill="#a1a1a6"/>
    <rect x="367.82" y="72" width="27.78" height="14" fill="#c7c7cc"/>
    <rect x="395.60" y="72" width="19.41" height="14" fill="#d2d2d7"/>
    <rect x="415.01" y="72" width="96.85" height="14" fill="#e5e5ea"/>
  </g>
    <circle cx="32" cy="114" r="4" fill="#0071e3"/>
    <text x="42" y="118" font-size="12" fill="#1d1d1f">Python 40.2%</text>
    <circle cx="192" cy="114" r="4" fill="#86868b"/>
    <text x="202" y="118" font-size="12" fill="#1d1d1f">Java 23.6%</text>
    <circle cx="352" cy="114" r="4" fill="#a1a1a6"/>
    <text x="362" y="118" font-size="12" fill="#1d1d1f">Markdown 6.4%</text>
    <circle cx="32" cy="136" r="4" fill="#c7c7cc"/>
    <text x="42" y="140" font-size="12" fill="#1d1d1f">C 5.7%</text>
    <circle cx="192" cy="136" r="4" fill="#d2d2d7"/>
    <text x="202" y="140" font-size="12" fill="#1d1d1f">TeX 4.0%</text>
    <circle cx="352" cy="136" r="4" fill="#e5e5ea"/>
    <text x="362" y="140" font-size="12" fill="#1d1d1f">Other 20.0%</text>
    <animate attributeName="opacity" values="1;1;0;0;1" keyTimes="0;0.47;0.5;0.97;1" dur="10s" repeatCount="indefinite"/>
  </g>
  <g opacity="0">
    <text x="28" y="44" font-size="11" font-weight="600" fill="#6e6e73" letter-spacing="1.5">PLATFORMS</text>
  <g>
    <rect x="28.00" y="72" width="190.89" height="14" fill="#0071e3"/>
    <rect x="218.89" y="72" width="171.05" height="14" fill="#86868b"/>
    <rect x="389.94" y="72" width="121.39" height="14" fill="#a1a1a6"/>
    <rect x="511.32" y="72" width="0.68" height="14" fill="#c7c7cc"/>
  </g>
    <circle cx="32" cy="114" r="4" fill="#0071e3"/>
    <text x="42" y="118" font-size="12" fill="#1d1d1f">Linux 39.4%</text>
    <circle cx="192" cy="114" r="4" fill="#86868b"/>
    <text x="202" y="118" font-size="12" fill="#1d1d1f">Windows 35.3%</text>
    <circle cx="352" cy="114" r="4" fill="#a1a1a6"/>
    <text x="362" y="118" font-size="12" fill="#1d1d1f">Mac 25.1%</text>
    <circle cx="32" cy="136" r="4" fill="#c7c7cc"/>
    <text x="42" y="140" font-size="12" fill="#1d1d1f">Unknown OS 0.1%</text>
    <animate attributeName="opacity" values="0;0;1;1;0" keyTimes="0;0.47;0.5;0.97;1" dur="10s" repeatCount="indefinite"/>
  </g>
  <circle cx="263.0" cy="177" r="3" fill="#0071e3">
    <animate attributeName="fill" values="#0071e3;#0071e3;#d2d2d7;#d2d2d7;#0071e3" keyTimes="0;0.47;0.5;0.97;1" dur="10s" repeatCount="indefinite"/>
  </circle>
  <circle cx="277.0" cy="177" r="3" fill="#d2d2d7">
    <animate attributeName="fill" values="#d2d2d7;#d2d2d7;#0071e3;#0071e3;#d2d2d7" keyTimes="0;0.47;0.5;0.97;1" dur="10s" repeatCount="indefinite"/>
  </circle>
</svg>
